<svg width="156" height="39" viewBox="0 0 156 39" fill="none" xmlns="http://www.w3.org/2000/svg">
<path d="M21.0125 17.8043C22.2261 18.8557 23.1969 20.1783 23.9251 21.7383C24.6533 23.2983 25 24.9939 25 26.7574C25 28.4531 24.6533 30.0809 23.9945 31.5391C23.3356 33.0313 22.4341 34.32 21.3245 35.4052C20.215 36.4904 18.8627 37.3722 17.3717 38.0165C15.846 38.6609 14.2164 39 12.4827 39H4.16089H3.36338C2.39251 38.7626 1.59501 38.2539 0.970874 37.5078C0.312066 36.7617 0 35.88 0 34.9304V11.293V11.1574C0 9.59739 0.312066 8.17305 0.901525 6.78261C1.49098 5.42609 2.32316 4.23913 3.36338 3.25565C4.40361 2.27217 5.6172 1.45826 7.00416 0.881736C8.39112 0.305214 9.88211 0 11.4771 0C13.0721 0 14.5631 0.305214 15.9847 0.881736C17.4064 1.45826 18.62 2.27217 19.6602 3.28956C20.7004 4.30696 21.5326 5.49392 22.1221 6.88435C22.7115 8.27479 23.0236 9.73305 23.0236 11.293C23.0236 13.7348 22.3301 15.8713 21.0125 17.8043ZM11.4771 8.27478C10.6103 8.27478 9.88211 8.58 9.29265 9.19043C8.70319 9.80087 8.4258 10.513 8.4258 11.327V14.3791H11.4771C12.344 14.3791 13.0721 14.0739 13.6963 13.4974C14.2857 12.9209 14.5978 12.1748 14.5978 11.327C14.5978 10.513 14.2857 9.80087 13.6963 9.19043C13.0721 8.58 12.344 8.27478 11.4771 8.27478ZM12.5173 30.7252C13.6963 30.7252 14.6671 30.3522 15.4646 29.5722C16.2621 28.7922 16.6436 27.8765 16.6436 26.7574C16.6436 25.6383 16.2621 24.7226 15.4646 23.9426C14.6671 23.1626 13.6963 22.7896 12.5173 22.7896H8.46047V26.7574V30.7252H12.5173Z" fill="#EC5938"/>
<path d="M33.0114 9.03436C34.0743 9.03436 35.0343 9.4466 35.8571 10.2367C36.68 11.0269 37.0914 12.0231 37.0914 13.1568V24.0469C37.0914 25.0088 37.2629 25.902 37.64 26.7265C38.0171 27.5853 38.4971 28.3067 39.1143 28.9251C39.7314 29.5435 40.4514 30.0244 41.3086 30.4023C42.1657 30.7802 43.0571 30.952 43.9829 30.952C44.8743 30.952 45.7657 30.7802 46.5886 30.471C47.4114 30.1275 48.1314 29.6809 48.7829 29.0969C49.4343 28.5129 49.9143 27.8258 50.2914 27.0013C50.6686 26.1768 50.84 25.2836 50.84 24.3561V13.0881C50.84 12.2636 51.0457 11.5765 51.4571 10.9925C51.5257 10.8551 51.6286 10.752 51.7314 10.6146C51.8343 10.4772 51.9371 10.3741 52.0743 10.2367C52.8286 9.41225 53.7543 9 54.8514 9C55.9486 9 56.9429 9.41225 57.7657 10.2367C58.5543 11.0269 58.9657 11.9201 59 12.882V24.0125C59 26.0738 58.6229 27.9976 57.8343 29.8183C57.0457 31.639 55.9829 33.2193 54.6114 34.5934C53.24 35.9676 51.6629 37.0326 49.8457 37.8227C48.0286 38.6128 46.0743 38.9907 43.9829 38.9907C41.9943 39.0594 40.1086 38.7502 38.2914 37.9601C36.4743 37.2043 34.8971 36.1394 33.5257 34.7996C32.1543 33.4598 31.0571 31.8795 30.2343 30.0931C29.4114 28.3067 29 26.4173 29 24.4248V13.0537C29 11.9888 29.3771 11.0269 30.1314 10.2367C30.8857 9.48095 31.8457 9.06871 33.0114 9.03436Z" fill="#EC5938"/>
<path d="M86.7535 32.0418C87.5845 32.8556 88 33.8389 88 34.9239C88 36.0428 87.5845 36.9922 86.7535 37.806C85.9224 38.518 84.9529 38.9249 83.8449 38.9927C82.7368 39.0605 81.7327 38.6537 80.867 37.806L71.6911 28.8885C71.5873 28.7868 71.4488 28.8546 71.4488 28.9902V34.89C71.4488 35.9411 71.0332 36.8905 70.2022 37.7382C69.3712 38.5858 68.4017 38.9927 67.259 38.9927C66.1856 38.9927 65.2161 38.5858 64.3158 37.806C63.4501 37.0261 63 36.0428 63 34.9239V4.10271C63 3.05161 63.4155 2.10222 64.2465 1.25455C65.0776 0.406885 66.0817 0 67.2244 0C68.4017 0 69.3712 0.406881 70.2022 1.18674C70.9986 1.96659 71.4141 2.94988 71.4141 4.06881V19.0556C71.4141 19.1912 71.5526 19.2251 71.6565 19.1573L80.8324 10.172C81.6634 9.35825 82.633 8.95137 83.7756 8.98528C84.8837 9.01919 85.8878 9.39216 86.7535 10.172C87.5845 10.9858 88 11.9691 88 13.0541C88 14.173 87.5845 15.1563 86.7535 15.9701L78.6164 23.9381C78.5471 24.006 78.5471 24.0738 78.6164 24.1416L86.7535 32.0418Z" fill="black"/>
<path d="M96.016 0.020933C96.5652 -0.0129914 97.0801 0.0887775 97.5606 0.292324C98.0412 0.529794 98.4874 0.801191 98.8993 1.17436C99.2769 1.54753 99.5858 1.98854 99.7918 2.49741C99.9977 3.00627 100.101 3.51514 100.101 4.05793V10.5036C100.101 10.741 100.375 10.9106 100.581 10.8089C101.886 10.1982 103.19 9.82506 104.563 9.62152C106.108 9.38405 107.652 9.38405 109.162 9.62152C110.673 9.85899 112.183 10.3 113.625 10.9785C115.066 11.657 116.405 12.5729 117.641 13.6924C119.082 15.1512 120.146 16.7456 120.902 18.4418C121.622 20.1381 122 22.0718 122 24.209C122 26.2444 121.588 28.1442 120.799 29.9422C120.009 31.7402 118.911 33.3007 117.538 34.6577C116.165 36.0147 114.586 37.0663 112.767 37.8466C110.947 38.6268 109.025 39 107.034 39C105.043 39 103.156 38.5929 101.336 37.8126C99.5172 37.0324 97.9382 35.9468 96.5309 34.5898C95.1579 33.2329 94.0595 31.6723 93.2357 29.8744C92.4119 28.0764 92 26.1766 92 24.209V3.71868C92 3.24374 92.1373 2.7688 92.3776 2.29386C92.6179 1.81892 92.9268 1.41183 93.3043 1.07258C93.6819 0.733341 94.0938 0.461948 94.5744 0.258402C95.0549 0.0548562 95.5355 -0.0469157 96.016 0.020933ZM100.101 24.1751C100.101 25.1249 100.272 26.007 100.65 26.8212C101.027 27.6693 101.508 28.3817 102.16 28.9923C102.812 29.603 103.533 30.0779 104.357 30.4511C105.181 30.8242 106.073 30.9939 107 30.9939C107.892 30.9939 108.785 30.8242 109.643 30.4511C110.501 30.0779 111.222 29.603 111.874 28.9923C112.526 28.3817 113.007 27.6693 113.384 26.8212C113.762 25.9731 113.934 25.091 113.934 24.1751C113.934 23.2252 113.762 22.3431 113.384 21.529C113.007 20.6809 112.492 19.9684 111.874 19.3578C111.222 18.7472 110.501 18.2722 109.643 17.8991C108.785 17.5259 107.927 17.3563 107 17.3563C106.039 17.3563 105.181 17.5598 104.357 17.933C103.533 18.3061 102.812 18.815 102.16 19.4596C101.508 20.1041 101.027 20.8166 100.65 21.6647C100.307 22.4788 100.101 23.327 100.101 24.1751Z" fill="black"/>
<path d="M140.948 9C142.946 9 144.84 9.41272 146.666 10.2382C148.491 11.0636 150.076 12.1642 151.453 13.54C152.831 14.9157 153.933 16.4979 154.76 18.3207C155.587 20.1092 156 22.0009 156 23.9957C156 25.0619 155.587 26.025 154.794 26.8504C154.002 27.6759 152.969 28.0542 151.798 28.0198H135.989C135.713 28.0198 135.541 28.3637 135.747 28.5701C137.056 30.1522 138.813 30.9433 140.983 30.9433C141.637 30.9433 142.188 30.8745 142.67 30.7713C143.118 30.6337 143.532 30.4961 143.876 30.3242C144.22 30.1522 144.565 30.0146 144.944 29.8771C145.288 29.7395 145.701 29.7051 146.149 29.7051C147.01 29.7395 147.768 29.9802 148.423 30.4618C149.077 30.9089 149.525 31.4936 149.835 32.1814C150.145 32.8693 150.248 33.5916 150.145 34.3827C150.041 35.1737 149.697 35.8616 149.077 36.5151L149.042 36.5495C147.94 37.4437 146.7 38.0628 145.357 38.4067C143.979 38.7507 142.533 38.957 141.017 38.9914C139.02 39.0602 137.125 38.7163 135.3 37.9252C133.474 37.1342 131.89 36.0336 130.478 34.6578C129.1 33.282 127.998 31.6655 127.206 29.8083C126.413 27.951 126 26.025 126 24.0645C126 22.1384 126.413 20.2468 127.206 18.4239C127.998 16.601 129.1 15.0189 130.478 13.6088C131.855 12.233 133.44 11.1324 135.265 10.307C136.987 9.41273 138.916 9 140.948 9ZM145.839 19.9028C146.115 19.9028 146.287 19.5589 146.08 19.3525C145.495 18.7335 144.84 18.2519 144.083 17.8392C143.118 17.3233 142.085 17.0826 140.914 17.0826C139.708 17.0826 138.641 17.3577 137.711 17.8392C136.987 18.2519 136.333 18.7335 135.747 19.3525C135.541 19.5589 135.713 19.9028 135.989 19.9028H145.839Z" fill="black"/>
</svg>
