<svg width="1440" height="700" viewBox="0 0 1440 700" fill="none" xmlns="http://www.w3.org/2000/svg">
<rect width="1440" height="700" transform="matrix(1 0 0 -1 0 700)" fill="white"/>
<mask id="mask0_3582_51195" style="mask-type:alpha" maskUnits="userSpaceOnUse" x="0" y="0" width="1440" height="700">
<rect width="1440" height="700" transform="matrix(1 0 0 -1 0 700)" fill="white"/>
</mask>
<g mask="url(#mask0_3582_51195)">
<path d="M657.214 -1366.91C667.585 -1392.51 694.747 -1401.03 717.882 -1385.96L2001.03 -549.766C2024.16 -534.689 2034.51 -501.72 2024.14 -476.128L1542.41 712.629C1532.04 738.217 1504.99 746.813 1481.86 731.745C1370.08 658.937 1057.9 455.582 840.648 313.872C623.906 172.497 310.588 -31.603 198.517 -104.601C175.375 -119.675 165.121 -152.585 175.494 -178.183L657.214 -1366.91Z" fill="#FFEFEC"/>
<path d="M-286.811 376.049C-276.439 350.457 -249.277 341.933 -226.142 357.01L1153.47 1256.14C1176.61 1271.21 1186.95 1304.18 1176.58 1329.78L803.19 2251.11C792.82 2276.7 765.731 2285.27 742.597 2270.2C625.525 2193.93 287.737 1973.85 53.2257 1820.91C-180.742 1668.32 -519.799 1447.42 -637.154 1370.96C-660.294 1355.89 -670.568 1322.96 -660.195 1297.37L-286.811 376.049Z" fill="#FFEFEC"/>
</g>
</svg>
