<svg width="1440" height="3485" viewBox="0 0 1440 3485" fill="none" xmlns="http://www.w3.org/2000/svg">
<mask id="mask0_3764_54148" style="mask-type:alpha" maskUnits="userSpaceOnUse" x="0" y="0" width="1440" height="692">
<rect width="1440" height="692" transform="matrix(1 0 0 -1 0 692)" fill="white"/>
</mask>
<g mask="url(#mask0_3764_54148)">
<path d="M653.139 152.02C665.76 127.459 695.903 117.781 720.464 130.402L1998.45 787.144C2023.01 799.766 2032.69 829.908 2020.06 854.469L1546.48 1776.03C1533.86 1800.59 1503.92 1810.37 1479.37 1797.75C1365.5 1739.27 1056.31 1580.44 840.648 1469.51C625.49 1358.84 315.161 1199.43 201.005 1140.79C176.438 1128.17 166.946 1098.13 179.569 1073.56L653.139 152.02Z" fill="#FFEFEC"/>
<path d="M273.139 145.02C285.76 120.459 315.903 110.781 340.464 123.402L1618.45 780.144C1643.01 792.766 1652.69 822.908 1640.06 847.469L1166.48 1769.03C1153.86 1793.59 1123.92 1803.37 1099.37 1790.75C985.501 1732.27 676.308 1573.44 460.648 1462.51C245.49 1351.84 -64.8389 1192.43 -178.995 1133.79C-203.562 1121.17 -213.054 1091.13 -200.431 1066.56L273.139 145.02Z" fill="#FFEFEC"/>
</g>
<mask id="mask1_3764_54148" style="mask-type:alpha" maskUnits="userSpaceOnUse" x="0" y="691" width="1440" height="655">
<rect y="691" width="1440" height="655" fill="white"/>
</mask>
<g mask="url(#mask1_3764_54148)">
<path d="M276.795 6.22336C287.397 -19.2744 314.889 -27.9431 338.2 -13.1388L1620.71 801.371C1644.02 816.175 1654.32 848.846 1643.72 874.344L1162.83 2030.84C1152.23 2056.33 1124.86 2065.08 1101.56 2050.28C989.515 1979.16 677.707 1781.21 460.648 1643.23C244.101 1505.58 -68.8494 1306.91 -181.181 1235.6C-204.498 1220.8 -214.691 1188.2 -204.087 1162.69L276.795 6.22336Z" fill="#FFEFEC"/>
</g>
<mask id="mask2_3764_54148" style="mask-type:alpha" maskUnits="userSpaceOnUse" x="-2" y="1345" width="1440" height="700">
<rect width="1440" height="700" transform="matrix(1 0 0 -1 -2 2045)" fill="white"/>
</mask>
<g mask="url(#mask2_3764_54148)">
<path d="M655.214 -21.914C665.585 -47.5067 692.747 -56.0317 715.882 -40.9551L1999.03 795.234C2022.16 810.311 2032.51 843.28 2022.14 868.872L1540.41 2057.63C1530.04 2083.22 1502.99 2091.81 1479.86 2076.75C1368.08 2003.94 1055.9 1800.58 838.648 1658.87C621.906 1517.5 308.588 1313.4 196.517 1240.4C173.375 1225.33 163.121 1192.41 173.494 1166.82L655.214 -21.914Z" fill="#FFEFEC"/>
<path d="M-288.811 1721.05C-278.439 1695.46 -251.277 1686.93 -228.142 1702.01L1151.47 2601.14C1174.61 2616.21 1184.95 2649.18 1174.58 2674.78L801.19 3596.11C790.82 3621.7 763.731 3630.27 740.597 3615.2C623.525 3538.93 285.737 3318.85 51.2257 3165.91C-182.742 3013.32 -521.799 2792.42 -639.154 2715.96C-662.294 2700.89 -672.568 2667.96 -662.195 2642.37L-288.811 1721.05Z" fill="#FFEFEC"/>
</g>
<mask id="mask3_3764_54148" style="mask-type:alpha" maskUnits="userSpaceOnUse" x="-4" y="2044" width="1444" height="672">
<rect x="-4" y="2044" width="1444" height="672" fill="white"/>
</mask>
<g mask="url(#mask3_3764_54148)">
<path d="M-293.166 1767.57C-281.494 1742.55 -252.552 1733.29 -228.523 1746.9L1147.85 2526.3C1171.88 2539.91 1181.9 2571.23 1170.23 2596.26L801.545 3386.7C789.874 3411.72 760.981 3421 736.953 3407.4C618.392 3340.29 282.648 3150.22 49.2257 3017.95C-183.647 2885.99 -520.629 2695.22 -639.493 2627.93C-663.527 2614.33 -673.514 2583.03 -661.839 2558L-293.166 1767.57Z" fill="#FFEFEC"/>
</g>
<mask id="mask4_3764_54148" style="mask-type:alpha" maskUnits="userSpaceOnUse" x="-2" y="2715" width="1444" height="770">
<rect width="1444" height="770" transform="matrix(1 0 0 -1 -2 3485)" fill="white"/>
</mask>
<g mask="url(#mask4_3764_54148)">
<path d="M-330.886 1927.47C-318.264 1902.91 -288.121 1893.23 -263.56 1905.85L1111.33 2612.45C1135.89 2625.07 1145.57 2655.22 1132.94 2679.78L767.702 3390.46C755.081 3415.02 725.039 3424.75 700.48 3412.13C581.094 3350.8 246.35 3178.81 13.4445 3059.03C-218.916 2939.53 -554.895 2766.91 -674.584 2705.42C-699.149 2692.8 -708.744 2662.7 -696.12 2638.14L-330.886 1927.47Z" fill="#FFEFEC"/>
</g>
</svg>
