<svg width="1448" height="3397" viewBox="0 0 1448 3397" fill="none" xmlns="http://www.w3.org/2000/svg">
<rect width="1440" height="692" transform="matrix(1 0 0 -1 8 692)" fill="white"/>
<mask id="mask0_3712_50839" style="mask-type:alpha" maskUnits="userSpaceOnUse" x="8" y="0" width="1440" height="692">
<rect width="1440" height="692" transform="matrix(1 0 0 -1 8 692)" fill="white"/>
</mask>
<g mask="url(#mask0_3712_50839)">
<path d="M661.139 152.02C673.76 127.459 703.903 117.781 728.464 130.402L2006.45 787.144C2031.01 799.766 2040.69 829.908 2028.06 854.469L1554.48 1776.03C1541.86 1800.59 1511.92 1810.37 1487.37 1797.75C1373.5 1739.27 1064.31 1580.44 848.648 1469.51C633.49 1358.84 323.161 1199.43 209.005 1140.79C184.438 1128.17 174.946 1098.13 187.569 1073.56L661.139 152.02Z" fill="#FFEFEC"/>
<path d="M281.139 145.02C293.76 120.459 323.903 110.781 348.464 123.402L1626.45 780.144C1651.01 792.766 1660.69 822.908 1648.06 847.469L1174.48 1769.03C1161.86 1793.59 1131.92 1803.37 1107.37 1790.75C993.501 1732.27 684.308 1573.44 468.648 1462.51C253.49 1351.84 -56.8389 1192.43 -170.995 1133.79C-195.562 1121.17 -205.054 1091.13 -192.431 1066.56L281.139 145.02Z" fill="#FFEFEC"/>
</g>
<rect x="4" y="692" width="1440" height="655" fill="white"/>
<mask id="mask1_3712_50839" style="mask-type:alpha" maskUnits="userSpaceOnUse" x="4" y="692" width="1440" height="655">
<rect x="4" y="692" width="1440" height="655" fill="white"/>
</mask>
<g mask="url(#mask1_3712_50839)">
<path d="M280.795 7.22336C291.397 -18.2744 318.889 -26.9431 342.2 -12.1388L1624.71 802.371C1648.02 817.175 1658.32 849.846 1647.72 875.344L1166.83 2031.84C1156.23 2057.33 1128.86 2066.08 1105.56 2051.28C993.515 1980.16 681.707 1782.21 464.648 1644.23C248.101 1506.58 -64.8494 1307.91 -177.181 1236.6C-200.498 1221.8 -210.691 1189.2 -200.087 1163.69L280.795 7.22336Z" fill="#FFEFEC"/>
</g>
<rect width="1440" height="700" transform="matrix(1 0 0 -1 4 1955)" fill="white"/>
<mask id="mask2_3712_50839" style="mask-type:alpha" maskUnits="userSpaceOnUse" x="4" y="1255" width="1440" height="700">
<rect width="1440" height="700" transform="matrix(1 0 0 -1 4 1955)" fill="white"/>
</mask>
<g mask="url(#mask2_3712_50839)">
<path d="M661.214 -111.914C671.585 -137.507 698.747 -146.032 721.882 -130.955L2005.03 705.234C2028.16 720.311 2038.51 753.28 2028.14 778.872L1546.41 1967.63C1536.04 1993.22 1508.99 2001.81 1485.86 1986.75C1374.08 1913.94 1061.9 1710.58 844.648 1568.87C627.906 1427.5 314.588 1223.4 202.517 1150.4C179.375 1135.33 169.121 1102.41 179.494 1076.82L661.214 -111.914Z" fill="#FFEFEC"/>
<path d="M-282.811 1631.05C-272.439 1605.46 -245.277 1596.93 -222.142 1612.01L1157.47 2511.14C1180.61 2526.21 1190.95 2559.18 1180.58 2584.78L807.19 3506.11C796.82 3531.7 769.731 3540.27 746.597 3525.2C629.525 3448.93 291.737 3228.85 57.2257 3075.91C-176.742 2923.32 -515.799 2702.42 -633.154 2625.96C-656.294 2610.89 -666.568 2577.96 -656.195 2552.37L-282.811 1631.05Z" fill="#FFEFEC"/>
</g>
<rect y="1955" width="1444" height="595" fill="white"/>
<mask id="mask3_3712_50839" style="mask-type:alpha" maskUnits="userSpaceOnUse" x="0" y="1955" width="1444" height="672">
<rect y="1955" width="1444" height="672" fill="white"/>
</mask>
<g mask="url(#mask3_3712_50839)">
<path d="M-289.166 1678.57C-277.494 1653.55 -248.552 1644.29 -224.523 1657.9L1151.85 2437.3C1175.88 2450.91 1185.9 2482.23 1174.23 2507.26L805.545 3297.7C793.874 3322.72 764.981 3332 740.953 3318.4C622.392 3251.29 286.648 3061.22 53.2257 2928.95C-179.647 2796.99 -516.629 2606.22 -635.493 2538.93C-659.527 2525.33 -669.514 2494.03 -657.839 2469L-289.166 1678.57Z" fill="#FFEFEC"/>
</g>
<rect width="1444" height="770" transform="matrix(1 0 0 -1 4 3397)" fill="white"/>
<mask id="mask4_3712_50839" style="mask-type:alpha" maskUnits="userSpaceOnUse" x="4" y="2627" width="1444" height="770">
<path d="M4 3397H1448V2627H4V3397Z" fill="white"/>
</mask>
<g mask="url(#mask4_3712_50839)">
<path d="M-324.886 1839.47C-312.264 1814.91 -282.121 1805.23 -257.56 1817.85L1116.89 2524.23C1141.45 2536.85 1151.13 2566.99 1138.51 2591.55L773.265 3302.24C760.644 3326.79 730.602 3336.52 706.043 3323.9C586.682 3262.58 252.054 3090.66 19.2257 2970.92C-213.057 2851.46 -548.921 2678.9 -668.584 2617.42C-693.15 2604.8 -702.744 2574.7 -690.12 2550.14L-324.886 1839.47Z" fill="#FFEFEC"/>
</g>
</svg>
