<svg width="1440" height="774" viewBox="0 0 1440 774" fill="none" xmlns="http://www.w3.org/2000/svg">
<g clip-path="url(#clip0_3658_50680)">
<rect width="1440" height="774" fill="white"/>
<mask id="mask0_3658_50680" style="mask-type:alpha" maskUnits="userSpaceOnUse" x="0" y="-1" width="1440" height="775">
<path d="M0 -0.314453H1440V773.651C1440 773.651 1003.75 773.729 720.5 773.651C438.023 773.574 0 773.651 0 773.651V-0.314453Z" fill="#F9FAFF"/>
</mask>
<g mask="url(#mask0_3658_50680)">
<path d="M0 -0.314453H1440V773.651C1440 773.651 1003.75 773.729 720.5 773.651C438.023 773.574 0 773.651 0 773.651V-0.314453Z" fill="#FFDBD2"/>
</g>
<mask id="mask1_3658_50680" style="mask-type:alpha" maskUnits="userSpaceOnUse" x="0" y="-1" width="1440" height="775">
<path d="M0 -0.314453H1440V773.651C1440 773.651 1003.75 773.729 720.5 773.651C438.023 773.574 0 773.651 0 773.651V-0.314453Z" fill="#F4F1FF"/>
</mask>
<g mask="url(#mask1_3658_50680)">
<path fill-rule="evenodd" clip-rule="evenodd" d="M424.567 -540.461C400.006 -553.083 369.864 -543.404 357.242 -518.843L148.872 -113.366C136.249 -88.8028 145.725 -58.7632 170.29 -46.143C279.42 9.92377 566.951 157.653 766.851 260.43C822.88 289.236 885.644 321.498 949.375 354.252L785.689 672.777C773.065 697.342 782.726 727.478 807.294 740.098C876.783 775.791 1013.29 845.917 1111.14 896.251C1209.19 946.69 1345.22 1016.57 1414.52 1052.17C1439.08 1064.78 1469.19 1055.09 1481.81 1030.53L1715.44 575.891C1728.06 551.33 1718.39 521.188 1693.82 508.566L1499.58 408.744L1638.02 139.337C1650.64 114.776 1640.97 84.6332 1616.41 72.0116L424.567 -540.461Z" fill="#FFEFEC"/>
<path d="M-411.502 366.157C-398.88 341.596 -368.738 331.917 -344.177 344.539L263.01 656.566C287.571 669.188 297.25 699.33 284.628 723.891L50.9925 1178.53C38.3732 1203.09 8.26641 1212.78 -16.2924 1200.17C-85.594 1164.57 -221.622 1094.69 -319.678 1044.25C-417.528 993.918 -554.031 923.792 -623.521 888.098C-648.088 875.478 -657.75 845.342 -645.126 820.777L-411.502 366.157Z" fill="#FFEFEC"/>
</g>
</g>
<defs>
<clipPath id="clip0_3658_50680">
<rect width="1440" height="774" fill="white"/>
</clipPath>
</defs>
</svg>
