<svg width="93" height="91" viewBox="0 0 93 91" fill="none" xmlns="http://www.w3.org/2000/svg">
<path d="M7.4553 32.3141C8.00611 31.6729 7.92142 30.7162 7.26615 30.1773C6.61089 29.6383 5.63316 29.7211 5.08232 30.3623C4.53148 31.0034 4.61612 31.9601 5.27135 32.4992C5.58603 32.758 5.99292 32.884 6.40249 32.8493C6.81207 32.8145 7.19078 32.6221 7.4553 32.3141Z" fill="#EC5938"/>
<path d="M3.27174 34.8212C2.95672 34.5605 2.54844 34.4334 2.13734 34.4681C1.72625 34.5028 1.34627 34.6965 1.08159 35.0062C-0.366369 36.6895 -0.359816 39.1499 1.09709 40.8257L42.8773 89.1619C43.7814 90.1987 45.1044 90.796 46.4974 90.796C47.8903 90.796 49.2133 90.1987 50.1174 89.1619L91.8961 40.8257C93.3512 39.1484 93.3551 36.688 91.9054 35.0062L72.3645 12.2562C71.4621 11.2119 70.1337 10.6117 68.736 10.6167H24.251C22.8523 10.6132 21.5237 11.2157 20.6224 12.2623L9.06719 25.7197C8.54121 26.3627 8.63586 27.299 9.28039 27.8287C9.92492 28.3585 10.8837 28.2881 11.4402 27.6701L22.4065 14.9059L32.9573 36.4001H20.548L24.144 29.5068C24.396 29.0243 24.3657 28.4469 24.0647 27.9921C23.7636 27.5374 23.2374 27.2743 22.6844 27.302C22.1314 27.3298 21.6355 27.6441 21.3835 28.1266L17.0667 36.4001H3.75999C3.92952 35.8256 3.73832 35.2073 3.27174 34.8212ZM3.95374 39.4334H17.0807L32.4675 68.112C32.7174 68.6051 33.2206 68.927 33.7824 68.9532C34.3442 68.9794 34.8764 68.7058 35.173 68.2383C35.4697 67.7707 35.4842 67.1826 35.211 66.7015L20.5821 39.4334H34.1555L43.7655 85.487L3.95374 39.4334ZM47.7505 87.2084C47.6333 87.3279 47.4953 87.426 47.3429 87.4981L37.319 39.4334H55.6726L48.1427 75.5301C48.0169 76.0667 48.1982 76.6279 48.6163 76.9963C49.0344 77.3647 49.6238 77.4824 50.156 77.3039C50.6883 77.1254 51.0799 76.6787 51.1791 76.1367L58.8377 39.4334H72.411L57.7821 66.7015C57.5089 67.1826 57.5235 67.7707 57.8201 68.2383C58.1168 68.7058 58.649 68.9794 59.2108 68.9532C59.7726 68.927 60.2758 68.6051 60.5256 68.112L75.914 39.4334H89.0394L47.7505 87.2084ZM89.0518 36.4001H60.0358L70.5867 14.9074L89.0518 36.4001ZM57.6659 34.2206L48.8293 13.6501H67.7657L57.6659 34.2206ZM44.1716 13.6501L35.3366 34.2206L25.2275 13.6501H44.1716ZM46.4966 16.0479L55.2386 36.4001H37.7546L46.4966 16.0479Z" fill="#EC5938"/>
<path d="M6.20312 89.4835C6.20312 90.3211 6.89708 91.0001 7.75313 91.0001H10.8531C11.7092 91.0001 12.4031 90.3211 12.4031 89.4835C12.4031 88.6458 11.7092 87.9668 10.8531 87.9668H7.75313C6.89708 87.9668 6.20312 88.6458 6.20312 89.4835Z" fill="#EC5938"/>
<path d="M17.05 91.0001H31C31.856 91.0001 32.55 90.3211 32.55 89.4835C32.55 88.6458 31.856 87.9668 31 87.9668H17.05C16.194 87.9668 15.5 88.6458 15.5 89.4835C15.5 90.3211 16.194 91.0001 17.05 91.0001Z" fill="#EC5938"/>
<path d="M82.1516 87.9668C81.2955 87.9668 80.6016 88.6458 80.6016 89.4835C80.6016 90.3211 81.2955 91.0001 82.1516 91.0001H85.2516C86.1076 91.0001 86.8016 90.3211 86.8016 89.4835C86.8016 88.6458 86.1076 87.9668 85.2516 87.9668H82.1516Z" fill="#EC5938"/>
<path d="M62.0031 87.9668C61.1471 87.9668 60.4531 88.6458 60.4531 89.4835C60.4531 90.3211 61.1471 91.0001 62.0031 91.0001H75.9531C76.8092 91.0001 77.5031 90.3211 77.5031 89.4835C77.5031 88.6458 76.8092 87.9668 75.9531 87.9668H62.0031Z" fill="#EC5938"/>
<path d="M83.6984 0C82.8424 0 82.1484 0.679035 82.1484 1.51667V4.55C82.1484 5.38763 82.8424 6.06667 83.6984 6.06667C84.5545 6.06667 85.2484 5.38763 85.2484 4.55V1.51667C85.2484 0.679035 84.5545 0 83.6984 0Z" fill="#EC5938"/>
<path d="M83.6984 12.1333C82.8424 12.1333 82.1484 12.8123 82.1484 13.65V16.6833C82.1484 17.5209 82.8424 18.2 83.6984 18.2C84.5545 18.2 85.2484 17.5209 85.2484 16.6833V13.65C85.2484 12.8123 84.5545 12.1333 83.6984 12.1333Z" fill="#EC5938"/>
<path d="M79.0484 7.58325H75.9484C75.0924 7.58325 74.3984 8.26229 74.3984 9.09992C74.3984 9.93755 75.0924 10.6166 75.9484 10.6166H79.0484C79.9045 10.6166 80.5984 9.93755 80.5984 9.09992C80.5984 8.26229 79.9045 7.58325 79.0484 7.58325Z" fill="#EC5938"/>
<path d="M91.4469 7.58325H88.3469C87.4908 7.58325 86.7969 8.26229 86.7969 9.09992C86.7969 9.93755 87.4908 10.6166 88.3469 10.6166H91.4469C92.3029 10.6166 92.9969 9.93755 92.9969 9.09992C92.9969 8.26229 92.3029 7.58325 91.4469 7.58325Z" fill="#EC5938"/>
<path d="M9.3 63.7C8.44396 63.7 7.75 64.379 7.75 65.2166V68.2499C7.75 69.0876 8.44396 69.7666 9.3 69.7666C10.156 69.7666 10.85 69.0876 10.85 68.2499V65.2166C10.85 64.379 10.156 63.7 9.3 63.7Z" fill="#EC5938"/>
<path d="M9.3 75.8333C8.44396 75.8333 7.75 76.5123 7.75 77.3499V80.3833C7.75 81.2209 8.44396 81.8999 9.3 81.8999C10.156 81.8999 10.85 81.2209 10.85 80.3833V77.3499C10.85 76.5123 10.156 75.8333 9.3 75.8333Z" fill="#EC5938"/>
<path d="M4.65 71.2834H1.55C0.693959 71.2834 0 71.9625 0 72.8001C0 73.6378 0.693959 74.3168 1.55 74.3168H4.65C5.50604 74.3168 6.2 73.6378 6.2 72.8001C6.2 71.9625 5.50604 71.2834 4.65 71.2834Z" fill="#EC5938"/>
<path d="M17.0484 71.2834H13.9484C13.0924 71.2834 12.3984 71.9625 12.3984 72.8001C12.3984 73.6378 13.0924 74.3168 13.9484 74.3168H17.0484C17.9045 74.3168 18.5984 73.6378 18.5984 72.8001C18.5984 71.9625 17.9045 71.2834 17.0484 71.2834Z" fill="#EC5938"/>
</svg>
