<svg width="99" height="89" viewBox="0 0 99 89" fill="none" xmlns="http://www.w3.org/2000/svg">
<path opacity="0.1" d="M94.5687 51.783C98.2727 47.6324 98.2727 41.3673 94.5687 37.2167C86.0515 27.5091 69.0632 11.5369 49.4976 11.5369C29.932 11.5369 12.9437 27.5091 4.42644 37.2167C0.722436 41.3673 0.722436 47.6324 4.42644 51.783C12.9437 61.4906 29.932 77.4628 49.4976 77.4628C69.0632 77.4628 86.0515 61.4906 94.5687 51.783Z" fill="#EC5938"/>
<path opacity="0.5" d="M94.5696 37.2167C86.0523 27.5091 69.064 11.5369 49.4984 11.5369C48.6734 11.5369 47.8484 11.5764 47.0234 11.6308C65.5396 12.8916 81.4637 27.9211 89.6196 37.2167C93.3236 41.3673 93.3236 47.6324 89.6196 51.783C81.4637 61.0786 65.5396 76.108 47.0234 77.3689C47.8484 77.4232 48.6734 77.4628 49.4984 77.4628C69.064 77.4628 86.0523 61.4906 94.5696 51.783C98.2736 47.6324 98.2736 41.3673 94.5696 37.2167Z" fill="#EC5938"/>
<path opacity="0.2" d="M49.4999 69.222C63.1688 69.222 74.2497 58.1535 74.2497 44.4998C74.2497 30.8461 63.1688 19.7776 49.4999 19.7776C35.8309 19.7776 24.75 30.8461 24.75 44.4998C24.75 58.1535 35.8309 69.222 49.4999 69.222Z" fill="#EC5938"/>
<path opacity="0.5" d="M49.4984 19.7776C48.6635 19.7776 47.8369 19.8221 47.0234 19.9028C59.6645 21.1788 69.285 31.8086 69.285 44.4998C69.285 57.1911 59.6645 67.8208 47.0234 69.0968C47.8369 69.1775 48.6635 69.222 49.4984 69.222C63.1674 69.222 74.2483 58.1535 74.2483 44.4998C74.2483 30.8461 63.1674 19.7776 49.4984 19.7776Z" fill="#EC5938"/>
<path opacity="0.5" d="M49.4984 51.0924C53.1435 51.0924 56.0984 48.1408 56.0984 44.4998C56.0984 40.8588 53.1435 37.9072 49.4984 37.9072C45.8533 37.9072 42.8984 40.8588 42.8984 44.4998C42.8984 48.1408 45.8533 51.0924 49.4984 51.0924Z" fill="#EC5938"/>
<path d="M4.42644 51.7833C16.2453 65.2519 33.2633 78.3184 51.3241 77.4169C51.565 77.4054 51.8026 77.3675 52.0435 77.351C35.575 76.2401 20.2663 64.1955 9.37641 51.7833C5.67241 47.6326 5.67241 41.3675 9.37641 37.2169C20.5666 24.4635 35.6987 12.7485 52.098 11.6475C33.8128 10.418 16.7337 23.1846 4.42644 37.2169C0.722436 41.3675 0.722436 47.6326 4.42644 51.7833Z" fill="white"/>
<path d="M12.6089 26.6257L14.8034 29.0881C11.574 31.9736 8.5215 35.0507 5.66249 38.3029L3.1875 36.1306C6.13371 32.7759 9.27991 29.6018 12.6089 26.6257Z" fill="white"/>
<path d="M8.94732 34.0358C8.35784 34.0387 7.81156 33.7273 7.51427 33.2189C7.21697 32.7104 7.21383 32.0821 7.50601 31.5707C7.7982 31.0593 8.34134 30.7424 8.93082 30.7395H8.94732C9.85859 30.7395 10.5973 31.4774 10.5973 32.3877C10.5973 33.2979 9.85859 34.0358 8.94732 34.0358Z" fill="#EC5938"/>
<path d="M49.4967 79.1111C69.7536 79.1111 87.2072 62.6692 95.8086 52.8693C100.064 48.0993 100.064 40.9008 95.8086 36.1307C87.2072 26.3308 69.7536 9.88892 49.4967 9.88892C42.5152 10.041 35.6609 11.7852 29.4576 14.9883C27.8851 15.7036 26.4298 16.6183 24.9234 17.4457C23.4846 18.3769 22.0029 19.2487 20.6334 20.264C17.8347 22.2194 15.1584 24.344 12.6194 26.6259C12.2876 26.9144 12.0864 27.3245 12.0615 27.7633C12.0367 28.2021 12.1903 28.6323 12.4874 28.9563C13.0986 29.6237 14.1311 29.6822 14.8139 29.0882C17.2576 26.8913 19.8336 24.846 22.5276 22.9637C23.8476 21.9863 25.26 21.1606 26.6311 20.269C28.0617 19.4877 29.4477 18.6126 30.9211 17.9418C36.6696 14.9641 43.023 13.3372 49.4967 13.1852C68.4534 13.1852 85.0952 28.9234 93.327 38.303C96.4784 41.8347 96.4784 47.1653 93.327 50.6971C85.0952 60.0767 68.4534 75.8148 49.4967 75.8148C30.54 75.8148 13.8982 60.0767 5.66636 50.6971C2.51499 47.1653 2.51499 41.8347 5.66636 38.303C6.20562 37.6148 6.1134 36.6258 5.45617 36.049C4.79894 35.4722 3.80522 35.508 3.19137 36.1307C-1.06379 40.9008 -1.06379 48.0993 3.19137 52.8693C11.7862 62.6692 29.2398 79.1111 49.4967 79.1111Z" fill="#EC5938"/>
<path d="M70.1202 58.2686C70.4994 58.487 70.9499 58.5459 71.3726 58.4325C71.7953 58.3191 72.1556 58.0425 72.3741 57.6637C79.1393 45.9392 75.9216 31.0025 64.9274 23.0952C53.9331 15.1879 38.7312 16.8767 29.745 27.0039C20.7588 37.131 20.9055 52.4088 30.0844 62.362C39.2633 72.3152 54.4947 73.7126 65.3352 65.5962C65.8068 65.2429 66.0539 64.6652 65.9834 64.0806C65.9129 63.496 65.5355 62.9933 64.9934 62.762C64.4513 62.5307 63.8268 62.6059 63.3552 62.9592C59.364 65.9686 54.4959 67.5895 49.4953 67.574C39.0474 67.5702 29.9038 60.5596 27.1991 50.4792C24.4945 40.3987 28.9029 29.7601 37.9486 24.5379C46.9944 19.3156 58.4235 20.8109 65.8177 28.184C73.2119 35.5571 74.7287 46.9709 69.5163 56.0155C69.297 56.3942 69.2374 56.8445 69.3507 57.2671C69.464 57.6897 69.7408 58.05 70.1202 58.2686Z" fill="#EC5938"/>
<path d="M32.4772 37.9699C32.056 37.8512 31.6049 37.9045 31.223 38.1181C30.8412 38.3317 30.5599 38.688 30.4411 39.1088C29.9452 40.8629 29.6943 42.6771 29.6953 44.4999C29.6953 45.4101 30.434 46.148 31.3453 46.148C32.2566 46.148 32.9953 45.4101 32.9953 44.4999C32.995 42.9793 33.2037 41.4659 33.6157 40.0021C33.8622 39.127 33.3528 38.2177 32.4772 37.9699Z" fill="#EC5938"/>
<path d="M51.1484 26.3705C51.1484 25.4602 50.4097 24.7223 49.4984 24.7223C44.0439 24.7008 38.8267 26.9485 35.099 30.926C34.4885 31.5898 34.5251 32.6204 35.1812 33.2393C35.8374 33.8581 36.8695 33.8357 37.498 33.1889C40.6051 29.8747 44.9528 28.0015 49.4984 28.0186C50.4097 28.0186 51.1484 27.2807 51.1484 26.3705Z" fill="#EC5938"/>
<path d="M49.5 52.7408C54.0563 52.7408 57.7499 49.0513 57.7499 44.5C57.7499 39.9488 54.0563 36.2593 49.5 36.2593C44.9436 36.2593 41.25 39.9488 41.25 44.5C41.2555 49.049 44.9459 52.7353 49.5 52.7408ZM49.5 39.5556C52.2337 39.5556 54.4499 41.7693 54.4499 44.5C54.4499 47.2308 52.2337 49.4445 49.5 49.4445C46.7662 49.4445 44.55 47.2308 44.55 44.5C44.55 41.7693 46.7662 39.5556 49.5 39.5556Z" fill="#EC5938"/>
<path d="M12.7134 22.5911C13.3576 21.9475 13.3576 20.9043 12.7134 20.2607L9.41345 16.9644C8.76602 16.3398 7.73692 16.3487 7.10046 16.9844C6.464 17.6202 6.45506 18.6481 7.08036 19.2948L10.3803 22.5911C11.0247 23.2345 12.0691 23.2345 12.7134 22.5911Z" fill="#EC5938"/>
<path d="M25.6556 5.11734C25.2638 5.31259 24.9657 5.65539 24.8271 6.07023C24.6885 6.48508 24.7206 6.93797 24.9164 7.32915L26.5664 10.6254C26.8299 11.1524 27.3548 11.499 27.9435 11.5346C28.5321 11.5701 29.095 11.2893 29.4202 10.7978C29.7454 10.3064 29.7833 9.679 29.5198 9.15201L27.8698 5.85571C27.6744 5.46436 27.3312 5.16666 26.9159 5.02817C26.5006 4.88968 26.0472 4.92176 25.6556 5.11734Z" fill="#EC5938"/>
<path d="M87.4466 23.074C87.8841 23.074 88.3037 22.9003 88.6131 22.5911L91.9131 19.2948C92.5384 18.6481 92.5294 17.6202 91.893 16.9844C91.2565 16.3487 90.2274 16.3398 89.58 16.9644L86.28 20.2607C85.8083 20.732 85.6672 21.4408 85.9225 22.0566C86.1778 22.6723 86.7793 23.0739 87.4466 23.074Z" fill="#EC5938"/>
<path d="M73.3351 5.11734C72.9435 4.92176 72.4901 4.88968 72.0748 5.02817C71.6595 5.16666 71.3163 5.46436 71.1208 5.85571L69.4708 9.15201C69.2073 9.679 69.2453 10.3064 69.5705 10.7978C69.8956 11.2893 70.4585 11.5701 71.0472 11.5346C71.6358 11.499 72.1608 11.1524 72.4243 10.6254L74.0743 7.32915C74.2701 6.93797 74.3022 6.48508 74.1636 6.07023C74.0249 5.65539 73.7269 5.31259 73.3351 5.11734Z" fill="#EC5938"/>
<path d="M47.8438 1.64815V4.94444C47.8438 5.85469 48.5825 6.59259 49.4937 6.59259C50.405 6.59259 51.1437 5.85469 51.1437 4.94444V1.64815C51.1437 0.737901 50.405 0 49.4937 0C48.5825 0 47.8438 0.737901 47.8438 1.64815Z" fill="#EC5938"/>
<path d="M8.24344 72.5184C8.68101 72.5183 9.10062 72.3446 9.40998 72.0355L12.71 68.7392C13.3353 68.0925 13.3263 67.0645 12.6899 66.4288C12.0534 65.793 11.0243 65.7841 10.3769 66.4087L7.07689 69.705C6.60515 70.1764 6.46405 70.8851 6.71938 71.5009C6.9747 72.1167 7.57619 72.5182 8.24344 72.5184Z" fill="#EC5938"/>
<path d="M26.4003 84.0556C27.0287 84.059 27.6045 83.7056 27.8853 83.1441L29.5353 79.8478C29.9426 79.0332 29.6117 78.0429 28.7961 77.636C27.9805 77.2291 26.9892 77.5597 26.5818 78.3744L24.9318 81.6707C24.6768 82.1804 24.7035 82.7855 25.0024 83.2709C25.3012 83.7562 25.8299 84.053 26.4003 84.0556Z" fill="#EC5938"/>
<path d="M90.75 72.5184C91.4173 72.5182 92.0187 72.1167 92.2741 71.5009C92.5294 70.8851 92.3883 70.1764 91.9166 69.705L88.6166 66.4087C87.9692 65.7841 86.94 65.793 86.3036 66.4288C85.6671 67.0645 85.6582 68.0925 86.2835 68.7392L89.5835 72.0355C89.8928 72.3446 90.3124 72.5183 90.75 72.5184Z" fill="#EC5938"/>
<path d="M72.5996 84.0556C73.1712 84.0553 73.7019 83.7594 74.0024 83.2737C74.3028 82.7879 74.3302 82.1815 74.0746 81.6707L72.4247 78.3744C72.0173 77.5597 71.0259 77.2291 70.2104 77.636C69.3948 78.0429 69.0638 79.0332 69.4712 79.8478L71.1212 83.1441C71.401 83.7035 71.9736 84.0565 72.5996 84.0556Z" fill="#EC5938"/>
<path d="M51.1437 87.3519V84.0556C51.1437 83.1454 50.405 82.4075 49.4937 82.4075C48.5825 82.4075 47.8438 83.1454 47.8438 84.0556V87.3519C47.8438 88.2622 48.5825 89.0001 49.4937 89.0001C50.405 89.0001 51.1437 88.2622 51.1437 87.3519Z" fill="#EC5938"/>
</svg>
