<svg width="97" height="90" viewBox="0 0 97 90" fill="none" xmlns="http://www.w3.org/2000/svg">
<path d="M1.61667 77.143C2.50953 77.143 3.23333 76.4235 3.23333 75.5359C3.23333 74.6483 2.50953 73.9287 1.61667 73.9287C0.723806 73.9287 0 74.6483 0 75.5359C0 76.4235 0.723806 77.143 1.61667 77.143Z" fill="#EC5938"/>
<path d="M8.08333 90H88.9167C93.3788 89.9947 96.9947 86.4001 97 81.9643V8.03571C96.9947 3.59991 93.3788 0.00531341 88.9167 0H8.08333C3.62125 0.00531341 0.00534489 3.59991 0 8.03571V69.1071C0 69.9947 0.723806 70.7143 1.61667 70.7143C2.50953 70.7143 3.23333 69.9947 3.23333 69.1071V19.2857H11.3167C12.2095 19.2857 12.9333 18.5662 12.9333 17.6786C12.9333 16.791 12.2095 16.0714 11.3167 16.0714H3.23333V8.03571C3.23333 5.37291 5.40475 3.21429 8.08333 3.21429H88.9167C91.5952 3.21429 93.7667 5.37291 93.7667 8.03571V16.0714H21.0167C20.1238 16.0714 19.4 16.791 19.4 17.6786C19.4 18.5662 20.1238 19.2857 21.0167 19.2857H93.7667V81.9643C93.7667 84.6271 91.5952 86.7857 88.9167 86.7857H8.08333C5.40475 86.7857 3.23333 84.6271 3.23333 81.9643C3.23333 81.0767 2.50953 80.3571 1.61667 80.3571C0.723806 80.3571 0 81.0767 0 81.9643C0.00534489 86.4001 3.62125 89.9947 8.08333 90Z" fill="#EC5938"/>
<path d="M9.7026 11.2499C10.5955 11.2499 11.3193 10.5304 11.3193 9.64279C11.3193 8.75519 10.5955 8.03564 9.7026 8.03564C8.80974 8.03564 8.08594 8.75519 8.08594 9.64279C8.08594 10.5304 8.80974 11.2499 9.7026 11.2499Z" fill="#EC5938"/>
<path d="M16.1635 11.2499C17.0564 11.2499 17.7802 10.5304 17.7802 9.64279C17.7802 8.75519 17.0564 8.03564 16.1635 8.03564C15.2707 8.03564 14.5469 8.75519 14.5469 9.64279C14.5469 10.5304 15.2707 11.2499 16.1635 11.2499Z" fill="#EC5938"/>
<path d="M22.6323 11.2499C23.5252 11.2499 24.249 10.5304 24.249 9.64279C24.249 8.75519 23.5252 8.03564 22.6323 8.03564C21.7394 8.03564 21.0156 8.75519 21.0156 9.64279C21.0156 10.5304 21.7394 11.2499 22.6323 11.2499Z" fill="#EC5938"/>
<path d="M63.0536 11.2499C63.9465 11.2499 64.6703 10.5304 64.6703 9.64279C64.6703 8.75519 63.9465 8.03564 63.0536 8.03564H61.437C60.5441 8.03564 59.8203 8.75519 59.8203 9.64279C59.8203 10.5304 60.5441 11.2499 61.437 11.2499H63.0536Z" fill="#EC5938"/>
<path d="M87.2984 11.2499C88.1913 11.2499 88.9151 10.5304 88.9151 9.64279C88.9151 8.75519 88.1913 8.03564 87.2984 8.03564H69.5151C68.6222 8.03564 67.8984 8.75519 67.8984 9.64279C67.8984 10.5304 68.6222 11.2499 69.5151 11.2499H87.2984Z" fill="#EC5938"/>
<path d="M11.2344 51.4287C11.2396 52.7712 11.8045 54.0514 12.7945 54.9644L31.2374 71.8877C31.5351 72.1648 31.9272 72.3198 32.3351 72.3216C33.0011 72.3222 33.5994 71.9167 33.8421 71.3001C34.0848 70.6836 33.9224 69.9821 33.4328 69.5332L14.9899 52.61C14.6581 52.3057 14.4694 51.8774 14.4694 51.4287C14.4694 50.98 14.6581 50.5517 14.9899 50.2475L24.6753 41.36C25.3316 40.7573 25.3721 39.7399 24.7659 39.0875C24.1596 38.4351 23.1362 38.3948 22.4799 38.9975L12.7945 47.893C11.8038 48.8056 11.2388 50.0861 11.2344 51.4287V51.4287Z" fill="#EC5938"/>
<path d="M30.1998 36.2909L33.4331 33.3241C34.0894 32.7214 34.1299 31.704 33.5237 31.0516C32.9174 30.3992 31.8939 30.3589 31.2377 30.9616L28.0044 33.9284C27.3481 34.5311 27.3076 35.5485 27.9138 36.2009C28.5201 36.8533 29.5435 36.8936 30.1998 36.2909Z" fill="#EC5938"/>
<path d="M63.5669 69.533C62.9106 70.1357 62.8701 71.1531 63.4763 71.8055C64.0826 72.4579 65.106 72.4982 65.7623 71.8955L84.2052 54.9643C85.2 54.0515 85.7657 52.767 85.7657 51.4213C85.7657 50.0756 85.2 48.7911 84.2052 47.8784L65.7623 30.9616C65.106 30.3589 64.0826 30.3992 63.4763 31.0516C62.8701 31.704 62.9106 32.7214 63.5669 33.3241L82.0098 50.2473C82.3415 50.5516 82.5303 50.9798 82.5303 51.4285C82.5303 51.8773 82.3415 52.3055 82.0098 52.6098L63.5669 69.533Z" fill="#EC5938"/>
<path d="M40.024 63.725L59.424 41.225C59.9641 40.548 59.8691 39.5676 59.2089 39.0056C58.5487 38.4436 57.5597 38.501 56.9699 39.1357L37.5699 61.6357C37.1681 62.068 37.0362 62.6841 37.226 63.2417C37.4159 63.7992 37.8972 64.209 38.4806 64.3097C39.0639 64.4105 39.6561 64.1861 40.024 63.725Z" fill="#EC5938"/>
<path d="M75.9839 80.3569C75.091 80.3569 74.3672 81.0765 74.3672 81.9641C74.3672 82.8517 75.091 83.5712 75.9839 83.5712H80.8339C81.7267 83.5712 82.4505 82.8517 82.4505 81.9641C82.4505 81.0765 81.7267 80.3569 80.8339 80.3569H75.9839Z" fill="#EC5938"/>
<path d="M87.2964 83.5712H88.913C89.8059 83.5712 90.5297 82.8517 90.5297 81.9641C90.5297 81.0765 89.8059 80.3569 88.913 80.3569H87.2964C86.4035 80.3569 85.6797 81.0765 85.6797 81.9641C85.6797 82.8517 86.4035 83.5712 87.2964 83.5712Z" fill="#EC5938"/>
</svg>
