<svg width="1440" height="770" viewBox="0 0 1440 770" fill="none" xmlns="http://www.w3.org/2000/svg">
<rect width="1444" height="770" transform="matrix(1 0 0 -1 0 770)" fill="white"/>
<mask id="mask0_3582_51223" style="mask-type:alpha" maskUnits="userSpaceOnUse" x="0" y="0" width="1444" height="770">
<path d="M0 770H1444V0H0V770Z" fill="white"/>
</mask>
<g mask="url(#mask0_3582_51223)">
<path d="M-328.886 -787.529C-316.264 -812.09 -286.121 -821.768 -261.56 -809.145L1112.89 -102.773C1137.45 -90.1508 1147.13 -60.0081 1134.51 -35.4475L769.265 675.236C756.644 699.793 726.602 709.521 702.043 696.904C582.682 635.584 248.054 463.659 15.2257 343.919C-217.057 224.46 -552.921 51.9005 -672.584 -9.57606C-697.15 -22.1965 -706.744 -52.2979 -694.12 -76.8615L-328.886 -787.529Z" fill="#FFEFEC"/>
</g>
</svg>
